
<svg version="1.0" xmlns="http://www.w3.org/2000/svg"
 width="656.000000pt" height="273.000000pt" viewBox="0 0 656.000000 273.000000"
 preserveAspectRatio="xMidYMid meet">

<g transform="translate(0.000000,273.000000) scale(0.100000,-0.100000)"
fill="#000000" stroke="none">
<path d="M2340 1390 c-66 -133 -118 -245 -115 -250 9 -14 695 -13 695 0 0 6
-41 91 -90 190 -57 114 -96 180 -105 180 -9 0 -31 -31 -52 -75 -21 -41 -40
-75 -43 -75 -3 0 -36 61 -73 135 -41 83 -73 135 -82 135 -10 0 -58 -87 -135
-240z m176 95 c19 -42 32 -80 29 -85 -11 -18 -44 -10 -60 14 -16 23 -18 24
-51 10 l-34 -14 37 75 c21 41 39 75 41 75 2 0 19 -34 38 -75z m241 -152 c-13
-13 -17 -13 -36 6 -12 12 -26 21 -31 21 -6 0 -1 19 11 42 l22 42 24 -48 c22
-43 23 -50 10 -63z"/>
<path d="M570 1570 c0 -19 7 -20 95 -20 l95 0 0 -190 c0 -162 2 -190 15 -190
13 0 15 28 15 190 l0 190 95 0 c88 0 95 1 95 20 0 19 -7 20 -205 20 -198 0
-205 -1 -205 -20z"/>
<path d="M1253 1580 c-131 -26 -201 -135 -169 -262 27 -102 119 -154 271 -152
103 1 165 18 165 44 0 18 -2 18 -42 3 -27 -10 -77 -16 -133 -17 -97 -1 -146
16 -192 66 -20 22 -43 68 -43 89 0 5 90 9 220 9 l220 0 0 38 c-1 91 -66 162
-169 182 -60 11 -69 11 -128 0z m139 -30 c63 -18 128 -89 128 -140 0 -6 -71
-10 -205 -10 -135 0 -205 4 -205 10 0 24 41 90 67 108 58 40 140 52 215 32z"/>
<path d="M1755 1577 c-33 -8 -51 -18 -53 -30 -4 -21 0 -21 62 -2 59 18 174 20
228 3 47 -14 78 -50 78 -89 0 -31 -4 -33 -134 -45 -143 -13 -239 -50 -264
-100 -32 -69 19 -136 116 -149 54 -7 168 7 231 30 54 19 51 19 51 -5 0 -14 7
-20 21 -20 20 0 21 3 17 158 -4 180 -12 203 -72 235 -50 25 -203 33 -281 14z
m315 -253 l0 -75 -43 -19 c-72 -32 -176 -46 -238 -32 -64 15 -89 36 -89 74 0
65 77 99 271 117 46 5 87 9 92 10 4 0 7 -33 7 -75z"/>
<path d="M3113 1577 c-97 -35 -102 -126 -11 -173 15 -8 66 -23 114 -35 107
-25 149 -45 163 -76 14 -30 2 -55 -36 -81 -37 -23 -211 -23 -265 1 -36 15 -38
15 -38 -3 0 -12 12 -23 38 -31 49 -17 217 -17 264 -1 75 27 102 105 53 154
-17 17 -61 36 -138 58 -61 18 -126 39 -144 46 -56 24 -56 81 1 108 43 20 156
21 222 1 27 -8 50 -15 52 -15 1 0 2 8 2 19 0 14 -12 21 -57 30 -71 14 -178 13
-220 -2z"/>
<path d="M3540 1380 c0 -180 2 -210 15 -210 12 0 15 18 15 100 l0 100 190 0
190 0 0 -100 c0 -94 1 -100 20 -100 20 0 20 5 18 207 -3 189 -5 208 -20 211
-16 3 -18 -6 -18 -92 l0 -96 -187 2 -188 3 -3 93 c-2 73 -6 92 -17 92 -13 0
-15 -32 -15 -210z"/>
<path d="M4383 1580 c-62 -9 -113 -37 -130 -71 -9 -16 -13 -76 -13 -181 0
-134 2 -158 15 -158 12 0 15 17 15 95 l0 95 180 0 c173 0 180 1 180 20 0 19
-7 20 -180 20 l-180 0 0 25 c0 14 7 41 15 61 22 53 59 64 220 64 125 0 136 2
133 18 -3 15 -17 17 -103 18 -55 1 -123 -2 -152 -6z"/>
<path d="M4745 1580 c-14 -22 10 -30 96 -30 l89 0 0 -190 c0 -183 1 -190 20
-190 19 0 20 7 20 190 l0 189 93 3 c74 2 92 6 92 18 0 13 -30 15 -202 18 -129
1 -204 -1 -208 -8z"/>
<path d="M5325 1575 c-69 -25 -95 -82 -59 -133 21 -31 37 -37 163 -72 62 -17
123 -37 136 -46 48 -31 44 -83 -8 -111 -44 -24 -215 -24 -269 0 -36 15 -38 15
-38 -3 0 -44 220 -63 314 -26 59 22 82 65 65 115 -14 41 -54 63 -174 96 -107
29 -144 45 -164 69 -18 22 -4 54 32 77 39 23 171 26 232 4 22 -8 41 -15 43
-15 1 0 2 9 2 19 0 15 -11 22 -50 30 -70 15 -177 13 -225 -4z"/>
<path d="M4100 1375 c0 -176 2 -205 15 -205 13 0 15 29 15 205 0 176 -2 205
-15 205 -13 0 -15 -29 -15 -205z"/>
</g>
</svg>
